# xmcd
# 
# Track frame offsets:
#     150
#     15096
#     30889
#     47792
#     63620
#     80942
#     97030
#     108767
#     124109
#     141044
#     155967
#     171995
# 
# Disc length: 2528
# 
# Revision: 0
# Processed by: cddbd v1.5.2PL0 Copyright (c) Steve Scherf et al.
# Submitted via: fre:ac v1.0.17
# 
DISCID=9c09de0c
DTITLE=Van Dik Hout - Leef!
DYEAR=0
DGENRE=Blues
TTITLE0=Dit Is Het Begin
TTITLE1=Ik Leef
TTITLE2=We Gaan Door
TTITLE3=Weg Uit Nederland
TTITLE4=Laatste Uitvlucht
TTITLE5=Nieuw Zeer
TTITLE6=Neer Op Jou
TTITLE7=De Macht Der Verbeelding
TTITLE8=Een Magisch Woord
TTITLE9=Zo Ontzettend Waar
TTITLE10=Je Blijft Bij Mij
TTITLE11=Tot Jij Mijn Liefde Voelt
EXTD=
EXTT0=
EXTT1=
EXTT2=
EXTT3=
EXTT4=
EXTT5=
EXTT6=
EXTT7=
EXTT8=
EXTT9=
EXTT10=
EXTT11=
PLAYORDER=
